<?xml version="1.0" encoding="utf-8"?>
<!-- Generator: Adobe Illustrator 27.5.0, SVG Export Plug-In . SVG Version: 6.00 Build 0)  -->
<svg version="1.1" xmlns="http://www.w3.org/2000/svg" xmlns:xlink="http://www.w3.org/1999/xlink" x="0px" y="0px"
	 viewBox="0 0 500 500" style="enable-background:new 0 0 500 500;" xml:space="preserve">
<g id="BACKGROUND">
	<g>
		<linearGradient id="SVGID_1_" gradientUnits="userSpaceOnUse" x1="252.6177" y1="361.0551" x2="252.6177" y2="50.9246">
			<stop  offset="0.002" style="stop-color:#D6E1F4"/>
			<stop  offset="0.3434" style="stop-color:#E1E8F3"/>
			<stop  offset="0.9968" style="stop-color:#F2F2F2"/>
		</linearGradient>
		<path style="fill:url(#SVGID_1_);" d="M463.487,249.883c-6.109-13.7-17.764-26.165-22.518-40.892
			c-8.076-25.013,4.838-52.561-0.375-78.383c-4.565-22.612-24.3-40.933-45.866-42.579c-17.928-1.369-34.925,7.56-52.714,9.869
			c-29.844,3.873-59.008-10.94-88.788-16.271c-26.807-4.799-54.699-1.748-79.82,8.73c-16.341,6.816-33.068,19.117-35.455,37.732
			c-1.83,14.269,5.345,29.114,1.841,42.994c-2.634,10.433-10.931,18.182-19.967,22.997c-9.036,4.814-19.012,7.28-28.483,11.055
			c-20.295,8.091-38.814,23.076-47.941,44.031c-9.127,20.955-7.229,48.137,7.686,65.322c7.122,8.206,16.537,13.681,24.437,21.031
			c10.263,9.55,10.05,25.013,16.108,37.061c6.245,12.419,17.49,20.59,28.804,27.156c14.142,8.207,30.548,12.07,46.455,10.055
			c22.736-2.88,43.315-16.386,66.121-18.65c23.118-2.295,45.794,7.125,68.387,13.375c24.98,6.911,51.404,10.004,76.332,3.7
			c24.929-6.305,48.219-23.038,58.951-47.8c8.009-18.479,8.668-39.981,16.976-58.305c4.984-10.993,12.767-21.086,13.628-33.324
			C467.759,262.059,466.15,255.854,463.487,249.883z"/>
	</g>
</g>
<g id="OBJECTS">
	<g>
		<g>
			<g>
				
					<linearGradient id="SVGID_00000057107435855550687160000001755428870558889121_" gradientUnits="userSpaceOnUse" x1="318.24" y1="168.6293" x2="406.7215" y2="168.6293">
					<stop  offset="0" style="stop-color:#FFAE2A"/>
					<stop  offset="0.3827" style="stop-color:#FFCC16"/>
					<stop  offset="0.7627" style="stop-color:#FFE306"/>
					<stop  offset="1" style="stop-color:#FFEC00"/>
				</linearGradient>
				<path style="fill:url(#SVGID_00000057107435855550687160000001755428870558889121_);" d="M384.568,165.736
					c-11.578-4.404-1.139-9.557,6.128-11.613c5.879-1.663,20.601-4.375,14.626-14.41c-6.259-10.511-12.254,2.471-17.233,3.937
					c-11.127,3.276,0.452-10.682,3.216-14.404c3.787-5.099,11.752-15.517,1.916-17.253c-7.955-1.404-16.194,9.68-19.494,15.204
					c-2.353,3.939-8.138,22.385-14.159,18.295c-4.558-3.096,0.157-21.565-10.724-8.364c-4.425,5.368-3.711,13.993-5.706,20.133
					c-2.922,8.994-4.153,12.721-12.136,10.412c-4.137-1.197-4.271-6.389-9.377-2.882c-2.629,1.805-3.408,10.116-3.385,13.001
					c0.205,26.51,10.804,44.264,15.804,46.553c6.769,3.099,19.348-1.377,25.136-4.702c2.878-1.653,8.127-4.385,7.758-8.575
					c-0.415-4.702-7.676-4.027-7.945-6.788c-0.764-7.833,13.645-0.35,17.636-1.467c5.167-1.446,13.727-10.678,8.305-15.562
					c-0.557-0.502-23.079-2.132-10.195-9.303c7.133-3.97,14.783,7.045,21.665-0.775
					C406.308,165.918,388.909,167.387,384.568,165.736z"/>
			</g>
			<path style="fill:#F46D6D;" d="M382.647,169.906c-4.975-2.1-10.116-3.996-15.533-4.457c3.811-4.761,7.804-9.477,10.703-14.763
				c0.818-1.491-1.619-2.521-2.431-1.04c-0.354,0.645-0.747,1.271-1.13,1.902c-0.418-1.616,0.083-4.029,0.234-5.318
				c0.391-3.329,1.645-6.32,2.954-9.373c0.671-1.564-1.759-2.606-2.431-1.04c-1.699,3.961-3.039,7.745-3.338,12.074
				c-0.147,2.128-0.274,4.434,0.961,6.195c-4.097,6.08-9.2,11.679-13.472,17.577c-1.826-2.894-3.167-5.907-3.784-9.335
				c-0.673-3.733-0.217-7.529-0.604-11.287c-0.174-1.693-2.799-1.367-2.624,0.329c0.465,4.519-0.064,8.958,1.072,13.415
				c0.856,3.358,2.392,6.327,4.299,9.195c-4.911,7.099-9.445,14.48-13.172,22.273c-1.238,2.588-2.368,5.227-3.463,7.882
				c-2.466-3.686-4.509-7.531-5.929-11.768c-0.79-2.356-1.666-4.852-1.982-7.319c-0.239-1.869-0.042-3.633-0.778-5.406
				c-0.653-1.572-3.108-0.591-2.454,0.984c0.901,2.171,0.597,5.002,1.168,7.324c0.552,2.241,1.236,4.467,2.014,6.64
				c1.592,4.446,3.935,8.481,6.638,12.334c0.04,0.056,0.091,0.079,0.133,0.126c-1.847,4.587-3.652,9.193-5.706,13.68
				c-0.164,0.127-0.31,0.29-0.406,0.533c-0.198,0.504-0.587,1.198-0.717,1.809c-3.671,9.267-7.369,18.528-10.922,27.841
				c-0.605,1.585,1.823,2.634,2.431,1.04c3.54-9.28,7.225-18.51,10.884-27.744c0.023-0.04,0.054-0.063,0.075-0.107
				c1.174-2.419,2.251-4.884,3.29-7.368c4.81,1.223,10.157-0.182,14.643-1.985c1.581-0.635,0.598-3.09-0.984-2.454
				c-3.901,1.567-8.416,2.785-12.631,1.954c2.313-5.68,4.492-11.425,7.127-16.957c1.049-2.202,2.171-4.364,3.342-6.498
				c0.087,0.062,0.157,0.134,0.27,0.179c6.558,2.662,13.635,3.728,20.655,2.625c1.677-0.264,1.358-2.889-0.329-2.624
				c-6.578,1.033-13.136,0.064-19.286-2.432c-0.013-0.005-0.024-0.002-0.036-0.007c3.612-6.302,7.682-12.341,11.957-18.211
				c0.728-0.999,1.486-1.986,2.255-2.97c0.151,0.364,0.458,0.656,0.987,0.698c5.256,0.42,10.188,2.25,15.009,4.285
				C383.174,172.999,384.217,170.569,382.647,169.906z"/>
		</g>
		
			<linearGradient id="SVGID_00000022536690338098666680000005281247524996069523_" gradientUnits="userSpaceOnUse" x1="313.1104" y1="236.761" x2="441.4823" y2="236.761">
			<stop  offset="0.0045" style="stop-color:#008DA2"/>
			<stop  offset="0.4104" style="stop-color:#1BABC0"/>
			<stop  offset="1" style="stop-color:#47DCF2"/>
		</linearGradient>
		<path style="fill:url(#SVGID_00000022536690338098666680000005281247524996069523_);" d="M313.534,281.509
			c6.75-7.238,12.518-14.948,19.668-21.659c-6.179-9.789-8.598-28.157-7.026-30.077c3.531-4.314,7.987,2.408,8.866,5.678
			c1.591,5.918,0.735,18.3-0.297,22.989c0.849-0.757,1.712-1.504,2.606-2.229c1.961-1.591,3.922-3.191,5.883-4.79
			c-1.826-3.467-6.09-10.654-3.716-22.35c0.398-1.961,1.107-4.534,3.198-5.294c2.902-1.055,3.116,2.198,3.194,4.257
			c0.134,3.53-0.24,15.647-0.096,21.286c3.925-3.202,7.855-6.402,11.799-9.58c-2.214-7.258-4.861-16.067-1.611-23.441
			c2.125-4.823,5.922-0.803,6.766,2.386c1.512,5.712,0.395,12.408-1.639,18.238c1.865-1.491,3.731-2.983,5.606-4.456
			c0.335-0.263,0.676-0.52,1.013-0.781c-1.394-3.471-3.107-6.668-3.242-10.539c-0.134-3.812,1.529-7.284,3.98-10.115
			c1.08-1.248,2.219-2.913,4.027-3.124c2.537-0.296,1.473,2.417,0.996,4.072c-1.014,3.521-1.846,7.166-2.469,10.761
			c-0.344,1.985-0.728,3.835-1.233,5.722c-0.13,0.487-0.209,1.164-0.288,1.857c2.69-2.057,5.424-4.073,8.202-6.036
			c-0.173-6.407-0.337-14.156,3.959-19.425c2.818-3.456,5.011,0.677,4.982,3.467c-0.045,4.328-1.863,8.817-4.277,12.733
			c1.227-0.828,2.459-1.648,3.699-2.455c2.105-7.208,4.609-16.168,11.32-20.469c4.27-2.736,5.191,2.614,4.178,5.663
			c-1.001,3.01-2.805,5.823-5.014,8.346c0.588-0.344,1.174-0.695,1.764-1.034c1.386-0.794,2.792-1.53,4.212-2.22
			c0.951-6.356,2.129-14.067,7.304-18.525c3.378-2.911,4.815,1.541,4.299,4.284c-0.819,4.354-3.496,8.549-6.652,12.032
			c2.22-0.916,4.466-1.758,6.728-2.557c1.566-5.008,3.495-11.051,8.219-13.992c3.099-1.929,3.702,1.854,2.939,4.008
			c-1.107,3.126-3.454,5.948-6.134,8.258c2.49-0.836,4.988-1.665,7.479-2.532c1.442-1.876,3.105-3.743,4.588-5.334
			c1.753-1.88,3.992-3.702,6.745-3.467c3.627,0.31,4.339,2.875,2.305,5.704c-0.929,1.293-2.171,2.148-3.568,2.763
			c1.41,0.264,2.721,0.801,3.593,1.616c2.386,2.23,0.2,4.387-2.39,4.883c-2.883,0.552-5.853-0.535-8.649-1.082
			c-2.071-0.405-4.262-0.201-6.337-0.392c-1.653,0.557-3.304,1.111-4.95,1.675c4.294-0.269,9.008,0.243,12.555,2.342
			c1.967,1.164,3.93,4.453,0.314,4.96c-5.802,0.813-11.433-3.001-15.971-5.913l-0.052-0.281c-4.626,1.656-9.186,3.485-13.601,5.827
			c1.482-0.002,2.936,0.148,4.319,0.497c2.521,0.636,5.724,3.591,1.942,5.31c-4.857,2.208-10.55,1.145-15.651-0.246
			c-4.591,2.874-9.104,5.899-13.517,9.051c4.814-1.689,10.292-2.614,15.006-1.426c2.703,0.682,6.137,3.851,2.083,5.694
			c-6.506,2.957-14.413,0.443-20.729-1.394l-0.084-0.165c-2.047,1.516-4.076,3.053-6.071,4.62c-0.965,0.758-1.914,1.537-2.871,2.304
			c6.586-2.474,14.035-3.976,20.343-2.644c3.611,0.763,8.084,4.766,2.523,7.398c-8.89,4.208-19.384,1.329-27.795-0.774
			c-2.739,2.244-5.472,4.496-8.207,6.745c6.531-0.229,20.05-1.51,24.445-1.564c2.056-0.023,6.876,0.464,5.72,3.773
			c-0.642,1.833-4.361,3.388-6.15,3.813c-3.988,0.95-18.656-0.411-28.244-2.568c-1.951,1.58-3.908,3.152-5.891,4.696
			c-0.734,0.572-1.449,1.154-2.154,1.742c9.642-1.187,28.605-2.244,33.17-0.74c2.322,0.765,5.924,2.607,5.347,5.567
			c-0.597,3.065-5.29,2.887-7.698,3.382c-5.546,1.139-23.11-1.845-26.276-2.862c-2.45-0.788-4.826-2.135-7.191-3.042
			c-1.566,1.415-3.072,2.866-4.532,4.347c7.583,1.564,24.925,3.926,30.35,5.131c2.467,0.55,8.1,2.488,5.786,6.124
			c-1.284,2.013-6.172,2.83-8.434,2.836c-4.786,0.016-20.51-5.168-31.392-10.21c-4.499,4.89-8.751,9.996-13.435,15.018
			C314.604,285.096,312.113,283.033,313.534,281.509z"/>
	</g>
	<g>
		<g>
			<g>
				
					<linearGradient id="SVGID_00000077286357156485128330000013814536566453907621_" gradientUnits="userSpaceOnUse" x1="168.7873" y1="202.5135" x2="108.1207" y2="93.1802">
					<stop  offset="0" style="stop-color:#FFAE2A"/>
					<stop  offset="0.3827" style="stop-color:#FFCC16"/>
					<stop  offset="0.7627" style="stop-color:#FFE306"/>
					<stop  offset="1" style="stop-color:#FFEC00"/>
				</linearGradient>
				<path style="fill:url(#SVGID_00000077286357156485128330000013814536566453907621_);" d="M121.043,157.159
					c11.578-4.404,1.14-9.557-6.128-11.613c-5.879-1.663-20.601-4.375-14.626-14.41c6.259-10.511,12.254,2.471,17.233,3.937
					c11.127,3.276-0.452-10.682-3.216-14.404c-3.787-5.099-11.752-15.517-1.916-17.253c7.955-1.404,16.194,9.68,19.494,15.204
					c2.352,3.938,8.137,22.384,14.159,18.295c4.558-3.096-0.157-21.565,10.724-8.365c4.425,5.368,3.711,13.993,5.706,20.133
					c2.922,8.994,4.153,12.721,12.136,10.412c4.137-1.196,4.271-6.389,9.377-2.882c2.629,1.806,3.408,10.116,3.385,13.001
					c-0.205,26.51-10.804,44.264-15.804,46.553c-6.769,3.099-19.348-1.377-25.136-4.702c-2.878-1.653-8.127-4.385-7.758-8.575
					c0.415-4.702,7.676-4.026,7.945-6.788c0.764-7.833-13.645-0.35-17.636-1.467c-5.167-1.446-13.726-10.678-8.305-15.562
					c0.557-0.502,23.079-2.132,10.195-9.303c-7.133-3.97-14.783,7.045-21.665-0.775C99.303,157.34,116.701,158.81,121.043,157.159z"
					/>
			</g>
			<path style="fill:#F46D6D;" d="M122.963,161.329c4.975-2.1,10.116-3.996,15.533-4.457c-3.811-4.761-7.804-9.477-10.703-14.763
				c-0.818-1.491,1.619-2.521,2.431-1.04c0.354,0.645,0.747,1.271,1.13,1.902c0.418-1.616-0.083-4.029-0.235-5.318
				c-0.391-3.329-1.645-6.32-2.954-9.373c-0.671-1.564,1.759-2.606,2.431-1.04c1.699,3.961,3.039,7.745,3.338,12.074
				c0.147,2.128,0.274,4.434-0.961,6.195c4.097,6.08,9.2,11.679,13.472,17.577c1.826-2.895,3.167-5.907,3.784-9.335
				c0.673-3.734,0.217-7.529,0.604-11.287c0.174-1.693,2.799-1.367,2.624,0.329c-0.465,4.519,0.064,8.958-1.072,13.415
				c-0.856,3.359-2.392,6.327-4.299,9.195c4.911,7.099,9.445,14.48,13.172,22.273c1.238,2.588,2.368,5.227,3.463,7.882
				c2.466-3.686,4.509-7.531,5.929-11.768c0.79-2.355,1.666-4.852,1.982-7.319c0.239-1.869,0.042-3.633,0.778-5.406
				c0.653-1.572,3.108-0.591,2.455,0.984c-0.901,2.171-0.597,5.003-1.168,7.324c-0.552,2.241-1.235,4.467-2.013,6.64
				c-1.592,4.446-3.935,8.481-6.638,12.334c-0.04,0.057-0.091,0.079-0.133,0.126c1.847,4.587,3.652,9.193,5.706,13.68
				c0.163,0.127,0.31,0.29,0.406,0.533c0.198,0.504,0.587,1.198,0.717,1.809c3.671,9.267,7.369,18.528,10.922,27.841
				c0.605,1.586-1.823,2.634-2.431,1.04c-3.54-9.28-7.225-18.509-10.884-27.744c-0.023-0.039-0.054-0.063-0.075-0.107
				c-1.174-2.419-2.251-4.884-3.29-7.368c-4.81,1.223-10.157-0.182-14.643-1.985c-1.581-0.635-0.598-3.09,0.983-2.454
				c3.901,1.567,8.416,2.785,12.631,1.954c-2.313-5.68-4.492-11.425-7.127-16.957c-1.048-2.201-2.171-4.363-3.342-6.498
				c-0.087,0.062-0.157,0.134-0.27,0.179c-6.558,2.662-13.635,3.728-20.655,2.625c-1.677-0.264-1.358-2.889,0.329-2.624
				c6.578,1.033,13.136,0.064,19.286-2.432c0.013-0.005,0.024-0.002,0.036-0.007c-3.612-6.302-7.682-12.341-11.957-18.212
				c-0.728-0.999-1.486-1.986-2.255-2.97c-0.152,0.364-0.458,0.656-0.987,0.698c-5.256,0.419-10.188,2.25-15.009,4.285
				C122.437,164.421,121.393,161.992,122.963,161.329z"/>
		</g>
		
			<linearGradient id="SVGID_00000089552003778682194020000004659519524429468073_" gradientUnits="userSpaceOnUse" x1="64.128" y1="228.1838" x2="192.4999" y2="228.1838">
			<stop  offset="0.0045" style="stop-color:#008DA2"/>
			<stop  offset="0.4104" style="stop-color:#1BABC0"/>
			<stop  offset="1" style="stop-color:#47DCF2"/>
		</linearGradient>
		<path style="fill:url(#SVGID_00000089552003778682194020000004659519524429468073_);" d="M192.076,272.932
			c-6.75-7.238-12.518-14.948-19.668-21.659c6.179-9.789,8.598-28.157,7.026-30.077c-3.531-4.314-7.987,2.408-8.866,5.678
			c-1.591,5.919-0.735,18.3,0.297,22.989c-0.849-0.757-1.712-1.504-2.606-2.229c-1.962-1.591-3.922-3.191-5.883-4.79
			c1.826-3.467,6.09-10.654,3.716-22.35c-0.398-1.961-1.107-4.534-3.198-5.294c-2.902-1.055-3.116,2.198-3.194,4.257
			c-0.134,3.53,0.24,15.647,0.096,21.286c-3.925-3.202-7.855-6.402-11.799-9.58c2.214-7.258,4.861-16.067,1.611-23.441
			c-2.125-4.823-5.922-0.804-6.766,2.385c-1.511,5.712-0.394,12.408,1.64,18.238c-1.866-1.491-3.731-2.983-5.606-4.456
			c-0.335-0.263-0.676-0.52-1.013-0.781c1.394-3.471,3.107-6.668,3.242-10.539c0.134-3.812-1.529-7.284-3.98-10.115
			c-1.08-1.248-2.219-2.913-4.027-3.124c-2.537-0.296-1.473,2.417-0.996,4.072c1.014,3.521,1.846,7.166,2.469,10.761
			c0.344,1.985,0.728,3.835,1.233,5.722c0.13,0.487,0.209,1.164,0.288,1.857c-2.69-2.057-5.424-4.073-8.202-6.036
			c0.173-6.407,0.337-14.156-3.959-19.425c-2.818-3.456-5.011,0.676-4.982,3.467c0.045,4.328,1.863,8.817,4.277,12.733
			c-1.227-0.828-2.459-1.648-3.7-2.455c-2.105-7.208-4.609-16.168-11.32-20.469c-4.27-2.736-5.191,2.614-4.178,5.663
			c1.001,3.01,2.805,5.823,5.014,8.346c-0.588-0.344-1.174-0.695-1.764-1.034c-1.386-0.795-2.792-1.53-4.212-2.221
			c-0.951-6.356-2.129-14.067-7.304-18.525c-3.378-2.911-4.815,1.541-4.299,4.284c0.819,4.354,3.496,8.549,6.652,12.032
			c-2.22-0.917-4.466-1.758-6.728-2.557c-1.566-5.008-3.495-11.051-8.219-13.991c-3.1-1.929-3.702,1.854-2.939,4.008
			c1.107,3.126,3.454,5.948,6.134,8.258c-2.491-0.836-4.988-1.665-7.479-2.532c-1.442-1.876-3.105-3.743-4.588-5.334
			c-1.753-1.88-3.992-3.702-6.745-3.467c-3.627,0.31-4.339,2.875-2.305,5.704c0.929,1.293,2.171,2.148,3.568,2.763
			c-1.41,0.264-2.721,0.801-3.593,1.616c-2.386,2.23-0.2,4.387,2.39,4.883c2.883,0.552,5.853-0.535,8.649-1.082
			c2.071-0.405,4.262-0.201,6.337-0.391c1.653,0.557,3.304,1.111,4.95,1.675c-4.293-0.269-9.008,0.242-12.555,2.342
			c-1.967,1.164-3.93,4.453-0.314,4.96c5.801,0.813,11.433-3.001,15.971-5.913l0.051-0.281c4.626,1.656,9.186,3.485,13.601,5.827
			c-1.482-0.002-2.936,0.148-4.319,0.496c-2.521,0.636-5.724,3.591-1.942,5.31c4.857,2.208,10.55,1.145,15.651-0.246
			c4.591,2.874,9.104,5.899,13.517,9.051c-4.814-1.689-10.292-2.614-15.006-1.425c-2.703,0.681-6.137,3.85-2.083,5.694
			c6.506,2.957,14.413,0.443,20.729-1.394l0.084-0.165c2.047,1.516,4.076,3.053,6.071,4.62c0.965,0.758,1.914,1.537,2.871,2.304
			c-6.586-2.475-14.035-3.976-20.343-2.644c-3.612,0.763-8.085,4.766-2.523,7.398c8.89,4.208,19.384,1.328,27.795-0.774
			c2.739,2.244,5.472,4.496,8.207,6.745c-6.531-0.229-20.05-1.51-24.445-1.564c-2.055-0.023-6.876,0.464-5.72,3.773
			c0.642,1.833,4.361,3.388,6.15,3.813c3.988,0.951,18.656-0.41,28.244-2.568c1.951,1.58,3.908,3.152,5.891,4.696
			c0.734,0.572,1.45,1.154,2.155,1.742c-9.642-1.187-28.605-2.244-33.17-0.74c-2.322,0.765-5.924,2.607-5.347,5.567
			c0.597,3.065,5.291,2.887,7.698,3.382c5.546,1.139,23.11-1.845,26.276-2.862c2.45-0.788,4.826-2.135,7.191-3.042
			c1.566,1.415,3.072,2.866,4.532,4.347c-7.583,1.564-24.925,3.926-30.35,5.131c-2.467,0.55-8.1,2.488-5.786,6.124
			c1.284,2.013,6.172,2.83,8.434,2.836c4.786,0.016,20.51-5.168,31.391-10.21c4.499,4.89,8.751,9.996,13.435,15.018
			C191.006,276.519,193.497,274.456,192.076,272.932z"/>
	</g>
	<g>
		<g>
			
				<linearGradient id="SVGID_00000131339694534985695280000011657852106344599209_" gradientUnits="userSpaceOnUse" x1="185.278" y1="354.3669" x2="283.778" y2="230.3667">
				<stop  offset="0.0019" style="stop-color:#574DFF"/>
				<stop  offset="0.1796" style="stop-color:#6A6DFF"/>
				<stop  offset="0.4238" style="stop-color:#8093FF"/>
				<stop  offset="0.6499" style="stop-color:#90AFFF"/>
				<stop  offset="0.8491" style="stop-color:#9ABFFF"/>
				<stop  offset="1" style="stop-color:#9DC5FF"/>
			</linearGradient>
			<path style="fill:url(#SVGID_00000131339694534985695280000011657852106344599209_);" d="M345.712,272.886
				c0,18.324-10.46,34.929-27.409,47.062c-1.407,1.001-2.846,1.986-4.347,2.924c-0.876,0.547-1.751,1.079-2.658,1.595
				c-0.281,0.188-0.563,0.344-0.86,0.516c-1.657,0.954-3.346,1.861-5.097,2.721c-1.313,0.657-2.658,1.282-4.018,1.876
				c-2.001,0.907-4.049,1.751-6.145,2.533c-3.221,1.235-6.567,2.33-10.022,3.268c-0.344,0.109-0.704,0.203-1.048,0.297
				c-3.831,1.032-7.786,1.892-11.852,2.549c-3.096,0.532-6.27,0.938-9.475,1.251c-2.079,0.188-4.175,0.344-6.285,0.422
				c-0.297,0.016-0.578,0.031-0.876,0.047c-1.861,0.094-3.737,0.125-5.629,0.125h-1.126c-52.331-0.422-94.578-30.332-94.578-67.185
				c0-37.087,42.856-67.154,95.704-67.154C302.855,205.732,345.712,235.799,345.712,272.886z"/>
			
				<linearGradient id="SVGID_00000070835264929136141620000008841108338170120104_" gradientUnits="userSpaceOnUse" x1="245.9559" y1="278.5768" x2="375.456" y2="96.5767">
				<stop  offset="0.0019" style="stop-color:#574DFF"/>
				<stop  offset="0.1796" style="stop-color:#6A6DFF"/>
				<stop  offset="0.4238" style="stop-color:#8093FF"/>
				<stop  offset="0.6499" style="stop-color:#90AFFF"/>
				<stop  offset="0.8491" style="stop-color:#9ABFFF"/>
				<stop  offset="1" style="stop-color:#9DC5FF"/>
			</linearGradient>
			<path style="fill:url(#SVGID_00000070835264929136141620000008841108338170120104_);" d="M313.11,272.892
				c0,12.083-6.897,23.032-18.073,31.032c-0.928,0.66-1.876,1.309-2.866,1.928c-0.577,0.361-1.155,0.711-1.753,1.052
				c-0.186,0.124-0.371,0.227-0.567,0.34c-1.093,0.629-2.206,1.227-3.361,1.794c-0.866,0.433-1.753,0.845-2.65,1.237
				c-1.32,0.598-2.67,1.155-4.052,1.67c-2.124,0.814-4.33,1.536-6.609,2.155c-0.227,0.072-0.464,0.134-0.691,0.196
				c-2.526,0.681-5.134,1.247-7.815,1.681c-2.041,0.351-4.134,0.619-6.248,0.825c-1.371,0.124-2.753,0.227-4.145,0.278
				c-0.196,0.01-0.381,0.021-0.577,0.031c-1.227,0.062-2.464,0.082-3.712,0.082h-0.742c-34.506-0.278-62.363-20.001-62.363-44.3
				c0-24.455,28.259-44.28,63.105-44.28C284.852,228.612,313.11,248.437,313.11,272.892z"/>
			<polygon style="fill:#E0E7EE;" points="266.322,260.311 293.514,279.424 297.309,278.932 270.817,260.311 			"/>
			<polygon style="fill:#E0E7EE;" points="263.84,283.13 291.032,302.243 294.827,301.75 268.335,283.13 			"/>
			<g>
				<path style="fill:#FFFFFF;" d="M294.254,261.458l-2.825,13.238l-0.516,2.423l-23.908-16.805l3.382-15.042l-4.928-4.124
					l-16.207,76.044h0.742c1.247,0,2.485-0.021,3.712-0.082c0.196-0.01,0.382-0.021,0.577-0.031l1.68-7.506l8.712,6.402
					c2.681-0.433,5.289-1,7.815-1.681c0.227-0.062,0.464-0.124,0.691-0.196l-15.753-11.073l3.299-14.671l24.032,17.64l-0.918,4.279
					c0.897-0.392,1.784-0.804,2.65-1.237c1.155-0.567,2.835-1.505,3.928-2.134l8.763-41.321L294.254,261.458z M286.305,298.758
					l-24.104-16.949l3.34-14.97l23.836,17.506L286.305,298.758z"/>
				<path style="fill:#E0E7EE;" d="M303.131,265.582l-8.093,38.342c-0.928,0.66-1.876,1.309-2.866,1.928
					c-0.577,0.361-1.155,0.711-1.753,1.052l8.763-41.321H303.131z"/>
				<polygon style="fill:#E0E7EE;" points="299.178,265.58 294.254,261.456 298.205,261.456 303.129,265.58 				"/>
				<polygon style="fill:#E0E7EE;" points="270.383,245.267 274.335,245.267 269.411,241.143 265.459,241.143 				"/>
				<polygon style="fill:#E0E7EE;" points="270.383,245.267 274.335,245.267 270.962,260.311 267.01,260.311 				"/>
			</g>
		</g>
		<g>
			<defs>
				<path id="SVGID_00000126307348399523596700000013348393138044501893_" d="M314.718,271.431
					c-2.867,12.144-7.031,23.791-18.423,32.055c-0.946,0.682-1.913,1.352-2.922,1.991c-0.589,0.373-1.177,0.735-1.787,1.086
					c-0.189,0.128-0.378,0.234-0.578,0.351c-1.114,0.65-2.249,1.267-3.426,1.853c-0.883,0.447-1.787,0.873-2.701,1.278
					c-1.345,0.618-2.722,1.193-4.13,1.725c-2.165,0.841-4.414,1.587-6.736,2.226c-0.231,0.075-0.473,0.138-0.704,0.202
					c-2.575,0.703-5.234,1.289-7.966,1.736c-2.081,0.362-4.214,0.639-6.369,0.852c-1.398,0.128-2.806,0.234-4.225,0.288
					c-0.2,0.011-0.389,0.021-0.589,0.032c-1.251,0.064-2.512,0.085-3.783,0.085h-0.757c-35.175-0.287-62.149-20.701-63.571-45.761
					c-3.163-55.763,34.39-95.882,69.912-95.882C291.496,175.549,328.294,213.923,314.718,271.431z"/>
			</defs>
			<clipPath id="SVGID_00000080195479794087508190000005258369174213955983_">
				<use xlink:href="#SVGID_00000126307348399523596700000013348393138044501893_"  style="overflow:visible;"/>
			</clipPath>
			<g style="clip-path:url(#SVGID_00000080195479794087508190000005258369174213955983_);">
				<g>
					<path style="fill:#323BB4;" d="M269.974,208.163c-1.637-5.317-5-9.596-7.613-14.423c-0.673-1.243-1.495-2.428-2.103-3.712
						c-0.241-0.509-1.51-2.991-2.816-5.537c-1.818-3.542-5.706-5.081-9.181-3.633l0,0c-2.09,0.871-3.734,2.706-4.488,5.027
						c-1.219,3.754-3.672,8.7-5.042,10.286c-2.545,2.946-5.638,5.766-7.528,9.275c-1.094,2.032-1.105,4.303-1.721,6.487
						c0.632-1.894,2.818-3.375,4.307-4.474c0.223,1.65-0.64,4.11-0.811,5.808c-0.283,2.812,0.132,5.417,1.052,8.049
						c2.056,5.88,6.262,9.895,9.645,14.879c0.796,1.172,1.329,2.444,2.213,3.561c0.308,0.389,0.861,1.397,1.316,1.385
						c0.638-0.017,2.251-2.117,2.686-2.538c4.245-4.1,9.638-6.546,12.744-11.87c2.085-3.573,2.678-7.568,4.069-11.375
						c0.741,2.141,0.428,4.567,0.996,6.737C269.597,217.537,271.477,213.046,269.974,208.163z"/>
				</g>
				<g>
					<path style="fill:#F9A101;" d="M261.488,362.035c0,0-6.664,2.917-4.058,6.113c3.551,2.129,8.037,4.542,9.659,7.216
						c1.167,1.924,3.492,2.827,5.719,2.501c0.253-0.037,0.404-0.065,0.404-0.065c1.015,0.735,2.508,0.074,2.534-1.18
						c0.042-1.995-1.345-5.366-7.808-10.435L261.488,362.035z"/>
					
						<linearGradient id="SVGID_00000104702419362891584130000000243708961548543161_" gradientUnits="userSpaceOnUse" x1="263.9246" y1="353.0552" x2="263.9246" y2="268.6093">
						<stop  offset="0.0013" style="stop-color:#FF2C6E"/>
						<stop  offset="0.1454" style="stop-color:#F7296B"/>
						<stop  offset="0.365" style="stop-color:#E22261"/>
						<stop  offset="0.6328" style="stop-color:#C01552"/>
						<stop  offset="0.936" style="stop-color:#90043D"/>
						<stop  offset="1" style="stop-color:#850038"/>
					</linearGradient>
					<path style="fill:url(#SVGID_00000104702419362891584130000000243708961548543161_);" d="M278.654,288.348L278.654,288.348
						c-0.001-0.002-0.003-0.004-0.004-0.006c-0.838-1.184-1.643-2.218-2.378-3.101c-1.703-2.62-2.569-5.259-2.108-7.928
						l-23.349-0.134l-11.123-1.563c0.14,0.5,0.272,1.001,0.409,1.501l-0.014,0c0,0-0.866,5.914,4.484,18.945
						c7.043,35.582,6.91,72.271,1.447,111.064l7.665,0.237c9.706-42.034,10.225-79.569,6.991-114.935l0.442-0.1
						c21.321,22.505,13.088,45.071,0.149,70.315l6.062,4.96C299.128,328.572,287.296,300.569,278.654,288.348z"/>
					<path style="fill:#F9A101;" d="M246.055,406.362c0,0-4.765,4.443-0.885,5.84l19.054,1.636c1.249,0.107,2.187-1.228,1.564-2.316
						c-0.991-1.731-3.917-3.907-12.068-4.923L246.055,406.362z"/>
				</g>
				<g>
					
						<linearGradient id="SVGID_00000067200120915635672760000015570593004884176269_" gradientUnits="userSpaceOnUse" x1="283.0414" y1="270.3885" x2="283.0414" y2="199.7094">
						<stop  offset="0" style="stop-color:#FFAE2A"/>
						<stop  offset="0.3827" style="stop-color:#FFCC16"/>
						<stop  offset="0.7627" style="stop-color:#FFE306"/>
						<stop  offset="1" style="stop-color:#FFEC00"/>
					</linearGradient>
					<path style="fill:url(#SVGID_00000067200120915635672760000015570593004884176269_);" d="M265.764,216.257
						c-1.498,1.1-1.549,3.064-1.298,4.592c0.172,1.046,0.529,2.044,1,2.993c1.572,3.167,7.404,14.577,11.973,19.1
						c2.008,1.988,5.09,2.365,7.517,0.917c5.373-3.204,14.359-8.8,16.776-11.77c-0.326-0.429-0.21-0.294-0.65-0.847
						c-0.44-0.554-1.357-1.838-1.959-2.491c-3.391,2.723-16.534,5.123-16.534,5.123s-7.71-11.544-9.329-16.115
						C272.296,215.205,269.57,213.463,265.764,216.257z"/>
					<path style="fill:#FAB9B5;" d="M301.73,232.077c4.428-2.374,8.039-5.277,9.05-10.496c0.177-0.916-1.536-1.96-2.916-1.017
						c-1.38,0.943-3.408,3.237-4.152,5.068c-0.191-0.68,0.138-1.888-0.087-2.497c-0.225-0.609-0.371-1.495-1.491-0.517
						c-1.121,0.978-2.542,4.257-2.962,6.077C299.983,229.877,300.895,230.911,301.73,232.077z"/>
				</g>
				<g>
					
						<linearGradient id="SVGID_00000182517639830197767720000003367056790210646409_" gradientUnits="userSpaceOnUse" x1="232.842" y1="270.3886" x2="232.842" y2="199.7092">
						<stop  offset="0" style="stop-color:#FFAE2A"/>
						<stop  offset="0.3827" style="stop-color:#FFCC16"/>
						<stop  offset="0.7627" style="stop-color:#FFE306"/>
						<stop  offset="1" style="stop-color:#FFEC00"/>
					</linearGradient>
					<path style="fill:url(#SVGID_00000182517639830197767720000003367056790210646409_);" d="M250.959,215.528
						c1.383,1.242,1.24,3.201,0.841,4.698c-0.274,1.024-0.727,1.982-1.29,2.881c-1.876,2.997-8.801,13.779-13.792,17.832
						c-2.194,1.782-5.298,1.853-7.571,0.174c-5.033-3.716-13.425-10.168-15.538-13.361c0.367-0.395,0.238-0.272,0.73-0.779
						c0.492-0.508,1.531-1.695,2.195-2.287c3.107,3.043,15.951,6.723,15.951,6.723s8.807-10.731,10.867-15.12
						C244.561,213.839,247.445,212.374,250.959,215.528z"/>
					<path style="fill:#FAB9B5;" d="M213.612,227.738c-4.174-2.797-7.482-6.041-7.975-11.334c-0.087-0.929,1.721-1.799,3.002-0.726
						c1.281,1.074,3.073,3.556,3.634,5.452c0.257-0.658,0.049-1.893,0.332-2.477c0.284-0.584,0.516-1.451,1.535-0.368
						s2.111,4.486,2.35,6.338C215.567,225.72,214.558,226.66,213.612,227.738z"/>
				</g>
				
					<linearGradient id="SVGID_00000075844158324812271640000009560645583358673038_" gradientUnits="userSpaceOnUse" x1="255.973" y1="270.3885" x2="255.973" y2="199.7094">
					<stop  offset="0" style="stop-color:#FFAE2A"/>
					<stop  offset="0.3827" style="stop-color:#FFCC16"/>
					<stop  offset="0.7627" style="stop-color:#FFE306"/>
					<stop  offset="1" style="stop-color:#FFEC00"/>
				</linearGradient>
				<path style="fill:url(#SVGID_00000075844158324812271640000009560645583358673038_);" d="M274.912,279.476
					c-2.822,1.921-5.934,3.102-9.255,3.71c-8.99,1.647-19.36-0.894-28.624-4.522c0,0,1.589-5.777,3.998-11.054
					c2.728-6.032,5.982-11.906,5.649-18.696c-0.155-3.165-1.164-6.461-2.341-9.35c-0.967-2.345-1.309-4.734-0.903-7.249
					c0.299-1.868,0.879-3.692,1.251-5.542c0.584-3.129,4.428-12.56,4.428-12.56l2.115,1.008l2.245,1.059
					c0.447-0.052,1.426-0.36,1.64-0.794c0.033-0.058,0.05-0.116,0.054-0.19l-0.068-1.323l7.007,0.093l0.109,1.102
					c0.093,0.82-0.042,1.451,0.831,1.494c0.68,0.033,1.521-0.177,2.32-0.449c1.312-0.454,2.514-1.077,2.676-1.069
					c0.044,0.002,4.928,17.334,4.118,21.727c-0.934,5.113-3.551,8.897-4.081,14.237c-0.169,1.637,0.145,4.276,0.677,5.829
					C271.987,266.642,274.912,279.476,274.912,279.476z"/>
				<path style="fill:#FAB9B5;" d="M258.431,228.545c0,0-7.72,0.242-7.2-13.325l2.245,1.059c0.447-0.052,1.426-0.36,1.64-0.794
					c0.033-0.058,0.05-0.116,0.054-0.19l-0.068-1.323l7.007,0.093l0.109,1.102c0.093,0.82-0.042,1.451,0.831,1.494
					c0.68,0.033,1.521-0.177,2.32-0.449C266.169,222.226,263.316,228.385,258.431,228.545z"/>
				<path style="fill:#F7ADAB;" d="M255.17,215.295c3.127,0.756,5.322,0.18,6.931-1.236l-0.379-5.304l-7.018,1.62L255.17,215.295z"
					/>
				<path style="fill:#FAB9B5;" d="M270.121,196.003c-0.473-0.044-1.013,0.126-1.542,0.432c-0.678-3.155-2.336-6.52-4.39-8.84
					c-0.861-1.151-1.853-1.904-2.936-2.36c-0.585-0.287-1.178-0.481-1.772-0.537c-0.408-0.037-0.811-0.054-1.209-0.051
					c-0.398-0.008-0.801,0.003-1.21,0.035c-0.595,0.047-1.19,0.234-1.778,0.513c-1.088,0.441-2.088,1.181-2.962,2.32
					c-2.08,2.292-3.776,5.635-4.49,8.781c-0.526-0.313-1.064-0.49-1.538-0.452c-1.587,0.126-2.119,2.609-1.693,4.496
					c0.54,2.393,2.359,3.154,4.048,3.641c0.766,1.586,1.853,3.142,3.111,4.445c1.315,1.552,3.017,2.708,4.963,3.188
					c0.057,0.015,0.115,0.028,0.172,0.041c0.113,0.026,0.223,0.061,0.338,0.081c0.077,0.014,0.156,0.014,0.234,0.024
					c0.066,0.008,0.131,0.014,0.197,0.02c0.151,0.014,0.302,0.024,0.454,0.024c0.152,0.002,0.303-0.007,0.454-0.018
					c0.065-0.006,0.131-0.01,0.196-0.018c0.078-0.009,0.157-0.008,0.234-0.021c0.115-0.019,0.225-0.053,0.339-0.077
					c0.057-0.013,0.115-0.025,0.172-0.039c1.952-0.454,3.667-1.588,5-3.123c1.272-1.286,2.377-2.827,3.16-4.402
					c1.694-0.465,3.522-1.201,4.089-3.587C272.21,198.639,271.706,196.15,270.121,196.003z"/>
				<g>
					<g>
						<g>
							<g>
								<path style="fill:#323BB4;" d="M253.519,199.754c0.033,0.531,0.493,0.936,1.027,0.904c0.534-0.032,0.94-0.489,0.906-1.021
									c-0.033-0.532-0.493-0.936-1.027-0.904C253.892,198.766,253.486,199.222,253.519,199.754z"/>
							</g>
						</g>
						<g>
							<g>
								<path style="fill:#323BB4;" d="M261.375,199.806c0.034,0.531,0.493,0.936,1.027,0.904c0.534-0.032,0.94-0.489,0.906-1.021
									c-0.033-0.532-0.493-0.936-1.027-0.904C261.748,198.818,261.342,199.275,261.375,199.806z"/>
							</g>
						</g>
						<g>
							<g>
								<path style="fill:#323BB4;" d="M252.558,197.932c-0.01-0.003-0.019-0.007-0.029-0.011c-0.145-0.063-0.21-0.23-0.146-0.373
									c0.763-1.704,2.325-1.632,3.05-1.365c0.147,0.056,0.22,0.219,0.165,0.364c-0.055,0.147-0.204,0.223-0.368,0.165
									c-0.05-0.019-1.591-0.569-2.323,1.065C252.847,197.911,252.695,197.976,252.558,197.932z"/>
							</g>
						</g>
						<g>
							<g>
								<path style="fill:#323BB4;" d="M260.866,195.616c-0.005-0.008-0.01-0.018-0.015-0.027c-0.071-0.14-0.015-0.31,0.126-0.38
									c1.684-0.836,2.846,0.199,3.235,0.862c0.078,0.135,0.03,0.307-0.106,0.384c-0.137,0.079-0.301,0.044-0.391-0.104
									c-0.026-0.046-0.865-1.438-2.48-0.636C261.104,195.781,260.945,195.736,260.866,195.616z"/>
							</g>
						</g>
						<g>
							<g>
								<path style="fill:#323BB4;" d="M255.045,205.06c-0.007-0.011-0.013-0.022-0.019-0.033c-0.087-0.171-0.018-0.38,0.155-0.466
									c2.067-1.027,3.494,0.245,3.971,1.057c0.096,0.166,0.037,0.377-0.13,0.472c-0.168,0.096-0.369,0.054-0.48-0.127
									c-0.032-0.057-1.062-1.766-3.044-0.781C255.337,205.262,255.141,205.208,255.045,205.06z"/>
							</g>
						</g>
						<g>
							<path style="fill:#323BB4;" d="M259.195,203.745c-0.153-0.001-0.275-0.123-0.276-0.275c0.001-0.151,0.124-0.274,0.277-0.274
								c0.005,0,0.534-0.01,0.671-0.291c0.064-0.13,0.127-0.533-0.637-1.487c-0.095-0.119-0.074-0.291,0.046-0.385
								c0.12-0.093,0.294-0.073,0.39,0.045c0.715,0.894,0.945,1.57,0.701,2.068c-0.293,0.595-1.134,0.6-1.17,0.599L259.195,203.745z
								"/>
						</g>
					</g>
				</g>
				<g>
					<path style="fill:#323BB4;" d="M269.451,190.059c-0.736-3.247-3.251-6.228-6.692-7.397c-3.376-1.147-7.723-0.909-10.8,0.86
						c-3.89,2.236-6.748,7.81-4.748,12.29c0.64,1.434,1.115,3.546,2.252,4.666c0.535-1.644,0.23-3.428,0.905-4.984
						c1.206-0.185,2.439-0.594,3.556-0.984c1.701-0.593,3.458-1.699,4.833-2.865c1.107-0.938,1.84-1.936,2.665-3.086
						c-0.651,1.4,0.357,4.024,1.326,5.068c0.847,0.911,2.143,1.232,2.998,2.188c0.734,0.82,0.936,1.826,0.979,2.905
						c0.035,0.887-0.079,1.769-0.326,2.596c0.084-0.283,0.656-0.715,0.843-0.979c0.288-0.408,0.532-0.848,0.747-1.299
						c0.438-0.919,0.766-1.912,0.985-2.906C269.371,194.314,269.848,191.814,269.451,190.059z"/>
				</g>
			</g>
		</g>
	</g>
	
		<text transform="matrix(1 0 0 1 197.8973 165.6643)" style="fill:#008DA2; font-family:'JosefinSans-SemiBold'; font-size:33.5607px;">OOPS!</text>
	
		<text transform="matrix(1 0 0 1 159.4944 364.982)" style="fill:#008DA2; font-family:'JosefinSans-Regular'; font-size:16.0402px;">We can´t find the page :(</text>
	<g>
		
			<linearGradient id="SVGID_00000093143813740095052610000012122812798394361499_" gradientUnits="userSpaceOnUse" x1="368.6486" y1="360.8855" x2="453.6525" y2="238.3798" gradientTransform="matrix(0.9962 -0.0868 0.0868 0.9962 -25.4314 35.7956)">
			<stop  offset="0.0019" style="stop-color:#574DFF"/>
			<stop  offset="0.1796" style="stop-color:#6A6DFF"/>
			<stop  offset="0.4238" style="stop-color:#8093FF"/>
			<stop  offset="0.6499" style="stop-color:#90AFFF"/>
			<stop  offset="0.8491" style="stop-color:#9ABFFF"/>
			<stop  offset="1" style="stop-color:#9DC5FF"/>
		</linearGradient>
		<path style="fill:url(#SVGID_00000093143813740095052610000012122812798394361499_);" d="M446.431,305.65l19.335-60.567
			l-46.05-3.896l-72.829,56.884l-6.838,17.301l66.652,8.376l-4.673,14.752l-1.884,5.913l33.689,3.207l6.648-19.473l15.892,0.816
			l7.372-21.303l-11.241-1.301L446.431,305.65z M417.749,287.583l-4.638,13.945l-10.977-1.298l-17.891-2.119l41.059-33.244
			L417.749,287.583z"/>
		
			<linearGradient id="SVGID_00000154420345251094918950000012139985654343776137_" gradientUnits="userSpaceOnUse" x1="452.0176" y1="251.9353" x2="620.5255" y2="12.4244" gradientTransform="matrix(0.9962 -0.0868 0.0868 0.9962 -25.4314 35.7956)">
			<stop  offset="0.0019" style="stop-color:#574DFF"/>
			<stop  offset="0.1796" style="stop-color:#6A6DFF"/>
			<stop  offset="0.4238" style="stop-color:#8093FF"/>
			<stop  offset="0.6499" style="stop-color:#90AFFF"/>
			<stop  offset="0.8491" style="stop-color:#9ABFFF"/>
			<stop  offset="1" style="stop-color:#9DC5FF"/>
		</linearGradient>
		<path style="fill:url(#SVGID_00000154420345251094918950000012139985654343776137_);" d="M340.05,315.372l1.352,15.506
			l60.627,7.623l4.673-14.752L340.05,315.372z M384.242,298.111l17.891,2.119l15.615-12.647l7.552-22.716L384.242,298.111z
			 M456.374,328.964l-15.892-0.816l-6.648,19.473l-33.689-3.207l1.352,15.506l33.689,3.207l6.648-19.473l15.892,0.816l7.372-21.302
			l-1.352-15.506L456.374,328.964z M446.431,305.65l6.074,0.71l14.613-45.771l-1.352-15.506L446.431,305.65z"/>
	</g>
	<g>
		
			<linearGradient id="SVGID_00000054233543428684654070000017028077347632422811_" gradientUnits="userSpaceOnUse" x1="62.5241" y1="345.9505" x2="124.5241" y2="248.4506">
			<stop  offset="0.0019" style="stop-color:#574DFF"/>
			<stop  offset="0.1796" style="stop-color:#6A6DFF"/>
			<stop  offset="0.4238" style="stop-color:#8093FF"/>
			<stop  offset="0.6499" style="stop-color:#90AFFF"/>
			<stop  offset="0.8491" style="stop-color:#9ABFFF"/>
			<stop  offset="1" style="stop-color:#9DC5FF"/>
		</linearGradient>
		<path style="fill:url(#SVGID_00000054233543428684654070000017028077347632422811_);" d="M130.638,297.329l15.114-61.756
			l-46.209-0.712l-68.734,61.77l-5.628,17.731l67.071,3.761l-3.645,15.039l-1.472,6.029l33.83,0.877l5.29-19.885l15.911-0.281
			l5.886-21.76l-11.304-0.523L130.638,297.329z M100.779,281.283l-3.666,14.231l-11.04-0.538l-17.995-0.88l38.669-35.996
			L100.779,281.283z"/>
		
			<linearGradient id="SVGID_00000152974619984168801790000014020882262000669083_" gradientUnits="userSpaceOnUse" x1="241.9377" y1="101.5863" x2="410.4376" y2="-137.9133">
			<stop  offset="0.0019" style="stop-color:#574DFF"/>
			<stop  offset="0.1796" style="stop-color:#6A6DFF"/>
			<stop  offset="0.4238" style="stop-color:#8093FF"/>
			<stop  offset="0.6499" style="stop-color:#90AFFF"/>
			<stop  offset="0.8491" style="stop-color:#9ABFFF"/>
			<stop  offset="1" style="stop-color:#9DC5FF"/>
		</linearGradient>
		<path style="fill:url(#SVGID_00000152974619984168801790000014020882262000669083_);" d="M25.181,314.363l2.418,15.376
			l61.008,3.424l3.645-15.039L25.181,314.363z M68.078,294.096l17.995,0.88l14.706-13.694l5.968-23.182L68.078,294.096z
			 M142.165,319.902l-15.911,0.281l-5.29,19.885l-33.83-0.877l2.417,15.375l33.83,0.877l5.29-19.885l15.911-0.281l5.886-21.76
			l-2.418-15.376L142.165,319.902z M130.638,297.329l6.109,0.289l11.423-46.67l-2.417-15.376L130.638,297.329z"/>
	</g>
</g>
<g id="DESIGNED_BY_FREEPIK">
	<g>
		<g>
			<g id="XMLID_29_">
				<g id="XMLID_48_">
					<path id="XMLID_56_" style="fill:#1D262D;" d="M260.104,465.465c-0.433,0.443-0.804,0.931-1.108,1.453l-0.465-0.241
						c-0.066-0.298-0.35-0.502-0.659-0.466c-0.331,0.039-0.567,0.339-0.529,0.67c0.04,0.331,0.339,0.567,0.67,0.528
						c0.065-0.008,0.127-0.025,0.184-0.052l0.451,0.234c-0.251,0.554-0.432,1.139-0.539,1.743l0.747,0.132
						c0.23-1.306,0.85-2.507,1.792-3.473L260.104,465.465z"/>
					<path id="XMLID_55_" style="fill:#1D262D;" d="M265.591,463.164c-0.171,0-0.341,0.006-0.508,0.017l-0.075-0.626
						c0.188-0.149,0.296-0.389,0.267-0.645c-0.047-0.394-0.403-0.674-0.796-0.628c-0.394,0.046-0.675,0.402-0.628,0.795
						c0.031,0.254,0.19,0.462,0.404,0.564l0.074,0.625c-0.715,0.116-1.403,0.332-2.061,0.646l0.327,0.684
						c0.935-0.446,1.941-0.673,2.995-0.673c0.498,0,0.993,0.053,1.476,0.157l0.161-0.74
						C266.692,463.222,266.142,463.164,265.591,463.164z"/>
					<path id="XMLID_54_" style="fill:#1D262D;" d="M272.195,465.711c0.33-0.04,0.566-0.342,0.525-0.672
						c-0.041-0.331-0.342-0.566-0.672-0.526c-0.31,0.038-0.536,0.305-0.531,0.609l-0.416,0.363c-0.418-0.431-0.888-0.813-1.406-1.14
						l-0.404,0.642c1.135,0.715,2.02,1.726,2.563,2.925l0.691-0.313c-0.252-0.554-0.569-1.071-0.944-1.545l0.402-0.351
						C272.066,465.715,272.128,465.718,272.195,465.711z"/>
					<path id="XMLID_53_" style="fill:#1D262D;" d="M265.044,473.372c-0.386,0.023-0.776,0.035-1.157,0.035
						c-0.879,0-1.733-0.061-2.479-0.18c-0.391-0.062-0.846-0.154-1.271-0.292c1.047,1.861,3.07,3.125,5.389,3.125
						c2.856,0,5.264-1.916,5.949-4.504c-0.681,0.45-1.505,0.825-2.458,1.123C267.839,473.047,266.464,473.287,265.044,473.372z"/>
					<path id="XMLID_49_" style="fill:#1D262D;" d="M265.591,464.679c-3.352,0-6.079,2.667-6.079,5.943
						c0,0.426,0.046,0.85,0.138,1.262c0.674,0.482,2.705,0.89,5.347,0.731c2.88-0.174,5.298-0.958,6.673-2.159
						c-0.006-0.194-0.022-0.39-0.045-0.582C271.244,466.913,268.65,464.679,265.591,464.679z M263.433,471.194
						c-1.021,0-1.85-0.829-1.85-1.85c0-1.02,0.829-1.85,1.85-1.85c1.018,0,1.85,0.83,1.85,1.85
						C265.283,470.365,264.452,471.194,263.433,471.194z M268.169,470.286c-0.75,0-1.361-0.609-1.361-1.359s0.611-1.361,1.361-1.361
						c0.751,0,1.36,0.611,1.36,1.361S268.921,470.286,268.169,470.286z"/>
				</g>
				<path id="XMLID_46_" style="fill:#1D262D;" d="M281.595,466.546c-0.295-0.116-0.805-0.309-1.383-0.237
					c-0.551,0.068-0.844,0.341-0.844,1.007v0.866h2.229v1.717h-2.229v5.455h-1.932v-5.455h-1.338v-1.717h1.338v-0.889
					c0-1.68,0.897-2.782,2.568-2.782c0.643,0,1.157,0.121,1.59,0.308V466.546z"/>
				<path id="XMLID_44_" style="fill:#1D262D;" d="M286.298,469.878c-0.178-0.029-0.357-0.046-0.526-0.046
					c-0.895,0-1.51,0.548-1.51,1.613v3.908h-1.933v-7.172h1.873v0.784c0.451-0.673,1.14-0.977,2.021-0.977
					c0.413,0,0.847,0.127,1.094,0.337L286.298,469.878z"/>
				<path id="XMLID_41_" style="fill:#1D262D;" d="M293.966,471.756c0,0.223-0.017,0.489-0.037,0.652h-5.086
					c0.207,1.035,0.933,1.487,1.844,1.487c0.621,0,1.295-0.252,1.813-0.689l1.134,1.243c-0.815,0.748-1.851,1.088-3.058,1.088
					c-2.197,0-3.723-1.495-3.723-3.752c0-2.258,1.48-3.797,3.626-3.797C292.544,467.99,293.958,469.522,293.966,471.756z
					 M288.851,471.09h3.175c-0.177-0.918-0.731-1.436-1.561-1.436C289.554,469.655,289.021,470.203,288.851,471.09z"/>
				<path id="XMLID_38_" style="fill:#1D262D;" d="M301.619,471.756c0,0.223-0.016,0.489-0.037,0.652h-5.085
					c0.208,1.035,0.933,1.487,1.844,1.487c0.622,0,1.296-0.252,1.814-0.689l1.133,1.243c-0.815,0.748-1.852,1.088-3.059,1.088
					c-2.198,0-3.723-1.495-3.723-3.752c0-2.258,1.481-3.797,3.628-3.797C300.197,467.99,301.611,469.522,301.619,471.756z
					 M296.505,471.09h3.174c-0.178-0.918-0.733-1.436-1.562-1.436C297.208,469.655,296.675,470.203,296.505,471.09z"/>
				<path id="XMLID_35_" style="fill:#1D262D;" d="M309.965,471.764c0,2.154-1.495,3.774-3.473,3.774
					c-0.962,0-1.643-0.377-2.109-0.933v3.709h-1.925v-10.133h1.888v0.792c0.467-0.585,1.154-0.984,2.139-0.984
					C308.47,467.99,309.965,469.61,309.965,471.764z M304.287,471.764c0,1.133,0.748,1.977,1.844,1.977
					c1.141,0,1.85-0.881,1.85-1.977s-0.709-1.977-1.85-1.977C305.035,469.788,304.287,470.631,304.287,471.764z"/>
				<path id="XMLID_32_" style="fill:#1D262D;" d="M313.068,465.836c0,0.696-0.541,1.228-1.236,1.228
					c-0.695,0-1.228-0.532-1.228-1.228c0-0.695,0.533-1.243,1.228-1.243C312.527,464.592,313.068,465.14,313.068,465.836z
					 M312.808,475.354h-1.932v-7.172h1.932V475.354z"/>
				<path id="XMLID_30_" style="fill:#1D262D;" d="M316.033,470.736l2.701-2.554h2.369l-3.479,3.375l3.5,3.797h-2.375l-2.717-2.901
					v2.901H314.1v-10.658h1.933V470.736z"/>
			</g>
			<g>
				<path style="fill:#1D262D;" d="M184.413,475.289v-1.055c-0.526,0.718-1.392,1.23-2.388,1.23c-1.846,0-3.149-1.406-3.149-3.705
					c0-2.257,1.29-3.721,3.149-3.721c0.953,0,1.816,0.469,2.388,1.245v-3.765h1.099v9.77H184.413z M184.413,473.37v-3.207
					c-0.396-0.615-1.245-1.143-2.124-1.143c-1.421,0-2.271,1.172-2.271,2.739c0,1.567,0.85,2.724,2.271,2.724
					C183.167,474.483,184.017,473.986,184.413,473.37z"/>
				<path style="fill:#1D262D;" d="M186.933,471.745c0-2.051,1.464-3.706,3.484-3.706c2.139,0,3.398,1.67,3.398,3.793v0.279h-5.726
					c0.087,1.333,1.024,2.445,2.548,2.445c0.807,0,1.627-0.322,2.182-0.894l0.527,0.719c-0.703,0.703-1.654,1.083-2.813,1.083
					C188.441,475.464,186.933,473.956,186.933,471.745z M190.404,468.947c-1.51,0-2.256,1.274-2.314,2.358h4.643
					C192.717,470.25,192.015,468.947,190.404,468.947z"/>
				<path style="fill:#1D262D;" d="M194.607,474.351l0.572-0.79c0.468,0.542,1.361,1.011,2.329,1.011
					c1.083,0,1.669-0.514,1.669-1.217c0-1.713-4.379-0.658-4.379-3.28c0-1.099,0.951-2.036,2.636-2.036
					c1.202,0,2.051,0.454,2.622,1.025l-0.512,0.762c-0.426-0.513-1.202-0.894-2.111-0.894c-0.967,0-1.567,0.483-1.567,1.113
					c0,1.552,4.38,0.527,4.38,3.281c0,1.187-0.952,2.138-2.782,2.138C196.306,475.464,195.325,475.113,194.607,474.351z"/>
				<path style="fill:#1D262D;" d="M201.478,466.471c0-0.41,0.336-0.747,0.731-0.747c0.411,0,0.747,0.337,0.747,0.747
					c0,0.41-0.336,0.732-0.747,0.732C201.814,467.204,201.478,466.881,201.478,466.471z M201.667,475.289v-7.074h1.1v7.074H201.667z
					"/>
				<path style="fill:#1D262D;" d="M204.583,477.105l0.555-0.82c0.586,0.703,1.289,0.967,2.3,0.967c1.172,0,2.271-0.571,2.271-2.124
					v-1.011c-0.513,0.718-1.377,1.26-2.373,1.26c-1.846,0-3.148-1.377-3.148-3.662c0-2.27,1.288-3.676,3.148-3.676
					c0.952,0,1.802,0.469,2.373,1.245v-1.069h1.1v6.87c0,2.343-1.642,3.075-3.37,3.075
					C206.238,478.16,205.416,477.925,204.583,477.105z M209.708,473.253v-3.09c-0.381-0.615-1.23-1.143-2.109-1.143
					c-1.42,0-2.27,1.128-2.27,2.694c0,1.554,0.85,2.695,2.27,2.695C208.478,474.41,209.328,473.869,209.708,473.253z"/>
				<path style="fill:#1D262D;" d="M217.413,475.289v-4.629c0-1.244-0.63-1.64-1.582-1.64c-0.864,0-1.685,0.527-2.094,1.099v5.17
					h-1.1v-7.074h1.1v1.025c0.497-0.586,1.465-1.201,2.519-1.201c1.479,0,2.255,0.747,2.255,2.284v4.966H217.413z"/>
				<path style="fill:#1D262D;" d="M219.933,471.745c0-2.051,1.464-3.706,3.486-3.706c2.139,0,3.397,1.67,3.397,3.793v0.279h-5.726
					c0.086,1.333,1.023,2.445,2.547,2.445c0.807,0,1.626-0.322,2.183-0.894l0.528,0.719c-0.703,0.703-1.656,1.083-2.813,1.083
					C221.441,475.464,219.933,473.956,219.933,471.745z M223.404,468.947c-1.508,0-2.256,1.274-2.313,2.358h4.642
					C225.718,470.25,225.015,468.947,223.404,468.947z"/>
				<path style="fill:#1D262D;" d="M233.35,475.289v-1.055c-0.526,0.718-1.392,1.23-2.388,1.23c-1.846,0-3.15-1.406-3.15-3.705
					c0-2.257,1.29-3.721,3.15-3.721c0.953,0,1.816,0.469,2.388,1.245v-3.765h1.099v9.77H233.35z M233.35,473.37v-3.207
					c-0.396-0.615-1.245-1.143-2.124-1.143c-1.421,0-2.271,1.172-2.271,2.739c0,1.567,0.85,2.724,2.271,2.724
					C232.105,474.483,232.955,473.986,233.35,473.37z"/>
				<path style="fill:#1D262D;" d="M239.692,475.289v-9.77h1.099v3.765c0.572-0.776,1.422-1.245,2.389-1.245
					c1.846,0,3.148,1.464,3.148,3.721c0,2.299-1.303,3.705-3.148,3.705c-0.996,0-1.861-0.513-2.389-1.23v1.055H239.692z
					 M242.9,474.483c1.436,0,2.285-1.156,2.285-2.724c0-1.567-0.85-2.739-2.285-2.739c-0.863,0-1.729,0.527-2.109,1.143v3.207
					C241.171,473.986,242.037,474.483,242.9,474.483z"/>
				<path style="fill:#1D262D;" d="M247.529,477.061c0.162,0.073,0.426,0.117,0.601,0.117c0.483,0,0.805-0.161,1.054-0.747
					l0.47-1.069l-2.959-7.147h1.185l2.358,5.8l2.345-5.8h1.199l-3.544,8.51c-0.425,1.025-1.143,1.421-2.08,1.436
					c-0.233,0-0.601-0.044-0.806-0.103L247.529,477.061z"/>
			</g>
		</g>
	</g>
</g>
</svg>
